# xmcd CD database file generated by Grip 3.3.0
# 
# Track frame offsets:
#       150
#       12940
#       26755
#       37905
#       50325
#       62395
#       72320
#       88370
#       99202
#       110060
#       120060
#       134070
#       144880
#       157580
# 
# Disc length: 2253 seconds
# 
# Revision: 4
# Processed by: cddbd v1.5.1PL0 Copyright (c) Steve Scherf et al.
# Submitted via: Grip 3.3.0
# 
DISCID=ac08cb0e
DTITLE=Velha Guarda da Portela - Velha Guarda da Portela
DYEAR=1970
DGENRE=Samba
TTITLE0=Quantas Lágrimas (Manacéia)
TTITLE1=Se Tu Fores Na Portela (Ventura)
TTITLE2=Desengano (Aniceto)
TTITLE3=Sofrimento De Quem Ama (Alberto Lonato)
TTITLE4=Vaidade De Um Sambista (Francisco Santana)
TTITLE5=Chega De Padecer (Mijinha)
TTITLE6=Levanta Cedo (Rufino)
TTITLE7=Cocórocó (Paulo da Portela)
TTITLE8=Tristeza (Heitor dos Prazeres e João da Gente)
TTITLE9=Vida de Fidalga (Alvaiade e Francisco Santana)
TTITLE10=Ando Penando (Alcides)
TTITLE11=A Maldade Não Tem Fim (Armando Santos)
TTITLE12=Alegria Tu Terás (Antônio Caetano)
TTITLE13=Passado De Glória (Monarco)
EXTD=
EXTT0=
EXTT1=
EXTT2=
EXTT3=
EXTT4=
EXTT5=
EXTT6=
EXTT7=
EXTT8=
EXTT9=
EXTT10=
EXTT11=
EXTT12=
EXTT13=
PLAYORDER=
